<svg width="307" height="196" viewBox="0 0 307 196" fill="none" xmlns="http://www.w3.org/2000/svg">
<path d="M11.5612 99C10.5471 99 9.67124 98.6312 8.9337 97.8937C8.19616 97.1562 7.8274 96.2803 7.8274 95.2662V5.93202C7.8274 4.91791 8.19616 4.04208 8.9337 3.30455C9.67124 2.56701 10.5471 2.19824 11.5612 2.19824H52.4945C65.7702 2.19824 76.1418 5.19448 83.6093 11.187C91.0769 17.1795 94.8107 25.3846 94.8107 35.8023C94.8107 41.9792 93.3817 47.3724 90.5238 51.982C87.758 56.4994 84.2086 60.141 79.8756 62.9068L96.885 94.4365C97.1616 94.9896 97.2999 95.4967 97.2999 95.9577C97.2999 96.7874 96.9772 97.5249 96.3319 98.1703C95.7787 98.7234 95.0873 99 94.2575 99H65.9085C64.0646 99 62.6817 98.539 61.7598 97.6171C60.8379 96.6952 60.2386 95.9116 59.9621 95.2662L48.0693 68.8532H42.3995V95.2662C42.3995 96.2803 42.0307 97.1562 41.2931 97.8937C40.5556 98.6312 39.6798 99 38.6657 99H11.5612ZM42.3995 42.5784H52.4945C54.6149 42.5784 56.1822 41.887 57.1963 40.5041C58.3026 39.029 58.8558 37.3695 58.8558 35.5257C58.8558 33.6819 58.3487 31.9763 57.3346 30.409C56.4127 28.7496 54.7993 27.9199 52.4945 27.9199H42.3995V42.5784ZM103.064 99C102.234 99 101.496 98.7234 100.851 98.1703C100.298 97.5249 100.021 96.7874 100.021 95.9577C100.021 95.5889 100.067 95.2662 100.16 94.9896L130.998 6.76175C131.274 5.74764 131.92 4.73352 132.934 3.71941C133.948 2.7053 135.377 2.19824 137.221 2.19824H167.229C169.073 2.19824 170.502 2.7053 171.516 3.71941C172.53 4.73352 173.176 5.74764 173.452 6.76175L204.291 94.9896C204.383 95.2662 204.429 95.5889 204.429 95.9577C204.429 96.7874 204.106 97.5249 203.461 98.1703C202.908 98.7234 202.216 99 201.387 99H175.803C174.052 99 172.761 98.6312 171.931 97.8937C171.194 97.064 170.687 96.2803 170.41 95.5428L167.091 86.4158H137.359L134.04 95.5428C133.764 96.2803 133.257 97.064 132.519 97.8937C131.782 98.6312 130.491 99 128.647 99H103.064ZM144.412 59.4496H160.038L152.156 33.728L144.412 59.4496ZM215.752 99C214.738 99 213.862 98.6312 213.125 97.8937C212.387 97.1562 212.019 96.2803 212.019 95.2662V5.93202C212.019 4.91791 212.387 4.04208 213.125 3.30455C213.862 2.56701 214.738 2.19824 215.752 2.19824H255.579C264.245 2.19824 271.99 3.67331 278.812 6.62346C285.634 9.48142 291.073 13.7223 295.13 19.346C299.278 24.9697 301.491 31.9302 301.768 40.2275C301.952 44.1918 302.044 47.6951 302.044 50.7374C302.044 53.6876 301.952 57.0526 301.768 60.8324C301.399 69.4985 299.278 76.6895 295.406 82.4054C291.534 88.0291 286.233 92.2239 279.503 94.9896C272.865 97.6632 265.121 99 256.271 99H215.752ZM246.591 72.0338H255.579C257.608 72.0338 259.405 71.665 260.973 70.9275C262.632 70.0978 263.969 68.8532 264.983 67.1937C265.997 65.5342 266.55 63.4138 266.642 60.8324C266.827 58.1589 266.919 55.7619 266.919 53.6415C267.011 51.521 267.011 49.4006 266.919 47.2802C266.919 45.0676 266.827 42.7167 266.642 40.2275C266.458 36.3554 265.213 33.5436 262.909 31.7919C260.696 30.0403 258.022 29.1644 254.888 29.1644H246.591V72.0338Z" fill="white"/>
<rect width="307" height="80.1611" transform="translate(0 115.102)" fill="white"/>
<path d="M56.896 178.874C51.7793 178.874 47.5615 178.183 44.2426 176.8C40.9237 175.417 38.4345 173.596 36.775 171.337C35.1156 169.079 34.2397 166.682 34.1475 164.146C34.1475 163.732 34.2858 163.386 34.5624 163.109C34.8851 162.787 35.2538 162.625 35.6687 162.625H48.8061C49.5436 162.625 50.0968 162.741 50.4656 162.971C50.8804 163.155 51.3183 163.432 51.7793 163.801C52.2403 164.123 52.7012 164.423 53.1622 164.7C53.6692 164.93 54.2224 165.115 54.8216 165.253C55.467 165.345 56.1584 165.391 56.896 165.391C58.4632 165.391 59.7078 165.23 60.6297 164.907C61.5978 164.538 62.0818 164.054 62.0818 163.455C62.0818 162.902 61.8052 162.441 61.252 162.072C60.745 161.703 59.8461 161.381 58.5554 161.104C57.2647 160.781 55.467 160.482 53.1622 160.205C49.5206 159.698 46.363 158.845 43.6894 157.647C41.0159 156.448 38.9415 154.812 37.4665 152.738C36.0375 150.617 35.323 148.036 35.323 144.994C35.323 141.859 36.1988 139.093 37.9505 136.696C39.7482 134.299 42.2144 132.432 45.3489 131.096C48.5295 129.759 52.2172 129.09 56.4119 129.09C59.8692 129.09 62.9345 129.551 65.6081 130.473C68.2817 131.349 70.5404 132.525 72.3842 134C74.2281 135.429 75.634 136.973 76.602 138.632C77.57 140.292 78.0771 141.882 78.1232 143.403C78.1232 143.818 77.9619 144.187 77.6392 144.51C77.3626 144.786 77.0399 144.924 76.6712 144.924H62.8423C62.197 144.924 61.6669 144.832 61.252 144.648C60.8833 144.463 60.4914 144.187 60.0766 143.818C59.8461 143.588 59.4082 143.334 58.7628 143.058C58.1636 142.735 57.38 142.574 56.4119 142.574C55.2595 142.574 54.4068 142.758 53.8536 143.127C53.3466 143.449 53.093 143.91 53.093 144.51C53.093 144.924 53.3005 145.316 53.7153 145.685C54.1302 146.054 54.8908 146.376 55.9971 146.653C57.1034 146.93 58.6937 147.206 60.768 147.483C65.3776 148.036 69.0653 148.935 71.8311 150.179C74.6429 151.378 76.6712 152.991 77.9158 155.019C79.2065 157.048 79.8518 159.56 79.8518 162.556C79.8518 165.921 78.8377 168.825 76.8095 171.268C74.8273 173.711 72.1077 175.601 68.6505 176.938C65.1932 178.229 61.2751 178.874 56.896 178.874ZM97.0292 178.183C96.5222 178.183 96.0843 177.998 95.7155 177.63C95.3467 177.261 95.1624 176.823 95.1624 176.316V144.648H83.6844C83.1774 144.648 82.7395 144.463 82.3707 144.095C82.0019 143.726 81.8175 143.288 81.8175 142.781V131.649C81.8175 131.142 82.0019 130.704 82.3707 130.335C82.7395 129.966 83.1774 129.782 83.6844 129.782H124.203C124.71 129.782 125.148 129.966 125.517 130.335C125.885 130.704 126.07 131.142 126.07 131.649V142.781C126.07 143.288 125.885 143.726 125.517 144.095C125.148 144.463 124.71 144.648 124.203 144.648H112.725V176.316C112.725 176.823 112.541 177.261 112.172 177.63C111.803 177.998 111.365 178.183 110.858 178.183H97.0292ZM152.413 178.874C147.896 178.874 143.931 178.183 140.52 176.8C137.155 175.417 134.482 173.343 132.5 170.577C130.564 167.765 129.503 164.308 129.319 160.205C129.273 158.315 129.25 156.31 129.25 154.19C129.25 152.069 129.273 150.018 129.319 148.036C129.503 143.979 130.564 140.545 132.5 137.733C134.436 134.922 137.109 132.778 140.52 131.303C143.931 129.828 147.896 129.09 152.413 129.09C156.931 129.09 160.895 129.828 164.306 131.303C167.717 132.778 170.391 134.922 172.327 137.733C174.309 140.545 175.369 143.979 175.507 148.036C175.599 150.018 175.646 152.069 175.646 154.19C175.646 156.31 175.599 158.315 175.507 160.205C175.323 164.308 174.24 167.765 172.258 170.577C170.321 173.343 167.648 175.417 164.237 176.8C160.872 178.183 156.931 178.874 152.413 178.874ZM152.413 165.391C153.934 165.391 155.156 164.953 156.078 164.077C157 163.155 157.484 161.726 157.53 159.79C157.622 157.808 157.668 155.849 157.668 153.913C157.668 151.977 157.622 150.064 157.53 148.174C157.484 146.884 157.23 145.823 156.769 144.994C156.354 144.164 155.778 143.565 155.041 143.196C154.303 142.781 153.427 142.574 152.413 142.574C151.445 142.574 150.569 142.781 149.786 143.196C149.048 143.565 148.449 144.164 147.988 144.994C147.573 145.823 147.343 146.884 147.296 148.174C147.25 150.064 147.227 151.977 147.227 153.913C147.227 155.849 147.25 157.808 147.296 159.79C147.389 161.726 147.873 163.155 148.749 164.077C149.67 164.953 150.892 165.391 152.413 165.391ZM183.748 178.183C183.241 178.183 182.803 177.998 182.435 177.63C182.066 177.261 181.882 176.823 181.882 176.316V131.649C181.882 131.142 182.066 130.704 182.435 130.335C182.803 129.966 183.241 129.782 183.748 129.782H204.215C210.853 129.782 216.039 131.28 219.772 134.276C223.506 137.272 225.373 141.375 225.373 146.584C225.373 149.672 224.659 152.369 223.23 154.674C221.847 156.932 220.072 158.753 217.906 160.136L226.41 175.901C226.549 176.178 226.618 176.431 226.618 176.662C226.618 177.076 226.456 177.445 226.134 177.768C225.857 178.044 225.511 178.183 225.097 178.183H210.922C210 178.183 209.309 177.952 208.848 177.491C208.387 177.03 208.087 176.639 207.949 176.316L202.002 163.109H199.168V176.316C199.168 176.823 198.983 177.261 198.614 177.63C198.246 177.998 197.808 178.183 197.301 178.183H183.748ZM199.168 149.972H204.215C205.275 149.972 206.059 149.626 206.566 148.935C207.119 148.197 207.396 147.368 207.396 146.446C207.396 145.524 207.142 144.671 206.635 143.887C206.174 143.058 205.367 142.643 204.215 142.643H199.168V149.972ZM233.648 178.183C233.141 178.183 232.703 177.998 232.335 177.63C231.966 177.261 231.781 176.823 231.781 176.316V131.649C231.781 131.142 231.966 130.704 232.335 130.335C232.703 129.966 233.141 129.782 233.648 129.782H269.119C269.626 129.782 270.064 129.966 270.433 130.335C270.802 130.704 270.986 131.142 270.986 131.649V141.398C270.986 141.905 270.802 142.343 270.433 142.712C270.064 143.081 269.626 143.265 269.119 143.265H248.376V147.621H267.598C268.105 147.621 268.543 147.805 268.912 148.174C269.281 148.543 269.465 148.981 269.465 149.488V158.477C269.465 158.984 269.281 159.422 268.912 159.79C268.543 160.159 268.105 160.344 267.598 160.344H248.376V164.7H269.672C270.179 164.7 270.617 164.884 270.986 165.253C271.355 165.622 271.539 166.059 271.539 166.567V176.316C271.539 176.823 271.355 177.261 270.986 177.63C270.617 177.998 270.179 178.183 269.672 178.183H233.648Z" fill="black"/>
</svg>
