<?xml version="1.0" encoding="UTF-8"?>
<!DOCTYPE svg PUBLIC "-//W3C//DTD SVG 1.1//EN" "http://www.w3.org/Graphics/SVG/1.1/DTD/svg11.dtd">
<svg xmlns="http://www.w3.org/2000/svg" version="1.1" width="564px" height="494px" style="shape-rendering:geometricPrecision; text-rendering:geometricPrecision; image-rendering:optimizeQuality; fill-rule:evenodd; clip-rule:evenodd" xmlns:xlink="http://www.w3.org/1999/xlink">
<g><path style="opacity:0.997" fill="#01467e" d="M 269.5,25.5 C 346.691,21.531 410.858,48.1977 462,105.5C 513.665,171.169 527.332,244.169 503,324.5C 477.833,393.667 430.667,440.833 361.5,466C 281.169,490.332 208.169,476.665 142.5,425C 76.9304,365.623 51.7637,292.123 67,204.5C 90.5,111.667 148.667,53.5 241.5,30C 250.94,28.2492 260.273,26.7492 269.5,25.5 Z"/></g>
<g><path style="opacity:1" fill="#f6f8fa" d="M 290.5,37.5 C 294.254,41.9117 297.587,46.5784 300.5,51.5C 300.427,53.0269 301.094,54.0269 302.5,54.5C 302.427,56.0269 303.094,57.0269 304.5,57.5C 348.819,121.451 393.653,185.117 439,248.5C 439.5,249.5 440,250.5 440.5,251.5C 437.415,255.246 434.749,259.246 432.5,263.5C 427.765,268.632 423.765,274.299 420.5,280.5C 413.81,289.2 407.477,298.2 401.5,307.5C 400.094,307.973 399.427,308.973 399.5,310.5C 393.063,317.939 387.397,325.939 382.5,334.5C 381.094,334.973 380.427,335.973 380.5,337.5C 373.814,346.197 367.481,355.197 361.5,364.5C 359.1,366.296 357.433,368.63 356.5,371.5C 354.588,373.657 352.921,375.991 351.5,378.5C 348.34,382.148 345.673,386.148 343.5,390.5C 328.062,410.942 313.395,431.942 299.5,453.5C 297.413,454.585 296.08,456.251 295.5,458.5C 293.738,459.262 292.738,460.596 292.5,462.5C 291.288,463.23 290.288,464.23 289.5,465.5C 288.335,458.189 288.169,450.856 289,443.5C 292.772,438.273 296.272,432.939 299.5,427.5C 304.845,420.129 310.179,412.795 315.5,405.5C 317.914,404.089 319.581,402.089 320.5,399.5C 321.128,396.91 322.295,394.577 324,392.5C 334.276,377.59 344.776,362.923 355.5,348.5C 356.906,348.027 357.573,347.027 357.5,345.5C 359.262,344.738 360.262,343.404 360.5,341.5C 371.687,324.446 383.353,307.779 395.5,291.5C 397.9,289.704 399.567,287.37 400.5,284.5C 407.81,273.516 415.143,262.516 422.5,251.5C 410.664,233.163 398.331,215.163 385.5,197.5C 385.262,195.596 384.262,194.262 382.5,193.5C 358.856,159.674 335.356,125.674 312,91.5C 310.383,89.2368 308.55,87.2368 306.5,85.5C 300.758,76.3566 294.758,67.3566 288.5,58.5C 287.872,51.0869 288.539,44.0869 290.5,37.5 Z"/></g>
<g><path style="opacity:1" fill="#6c90ad" d="M 290.5,37.5 C 288.539,44.0869 287.872,51.0869 288.5,58.5C 287.508,51.3524 287.175,44.0191 287.5,36.5C 288.791,36.2627 289.791,36.596 290.5,37.5 Z"/></g>
<g><path style="opacity:1" fill="#88a2b8" d="M 300.5,51.5 C 301.906,51.9731 302.573,52.9731 302.5,54.5C 301.094,54.0269 300.427,53.0269 300.5,51.5 Z"/></g>
<g><path style="opacity:1" fill="#809fba" d="M 302.5,54.5 C 303.906,54.9731 304.573,55.9731 304.5,57.5C 303.094,57.0269 302.427,56.0269 302.5,54.5 Z"/></g>
<g><path style="opacity:1" fill="#f6f8fa" d="M 290.5,88.5 C 292.833,91.8333 295.167,95.1667 297.5,98.5C 298.167,99.5 298.833,100.5 299.5,101.5C 299.427,103.027 300.094,104.027 301.5,104.5C 314.411,122.651 327.077,140.984 339.5,159.5C 340.08,161.749 341.413,163.415 343.5,164.5C 361.08,189.326 378.413,214.326 395.5,239.5C 396.08,241.749 397.413,243.415 399.5,244.5C 401.39,246.59 403.057,248.923 404.5,251.5C 403.807,252.518 403.141,253.518 402.5,254.5C 401.094,254.973 400.427,255.973 400.5,257.5C 397.589,260.99 394.922,264.656 392.5,268.5C 391.094,268.973 390.427,269.973 390.5,271.5C 381.841,283.828 373.174,296.161 364.5,308.5C 363.094,308.973 362.427,309.973 362.5,311.5C 361.094,311.973 360.427,312.973 360.5,314.5C 336.148,347.234 312.815,380.568 290.5,414.5C 289.178,411.232 288.511,407.565 288.5,403.5C 288.667,399.833 288.833,396.167 289,392.5C 292.61,386.923 296.443,381.59 300.5,376.5C 301.906,376.027 302.573,375.027 302.5,373.5C 304.584,369.664 306.917,365.997 309.5,362.5C 311.5,360.167 313.5,357.833 315.5,355.5C 317.326,353.853 318.66,351.853 319.5,349.5C 328.889,336.159 338.222,322.826 347.5,309.5C 349.759,308.656 350.759,306.989 350.5,304.5C 352.512,301.795 354.512,299.128 356.5,296.5C 357.906,296.027 358.573,295.027 358.5,293.5C 365.404,284.036 372.07,274.37 378.5,264.5C 381.449,262.627 383.449,259.961 384.5,256.5C 385.74,255.027 386.74,253.36 387.5,251.5C 360.883,211.909 333.55,172.909 305.5,134.5C 300.081,125.993 294.414,117.66 288.5,109.5C 287.872,102.087 288.539,95.0869 290.5,88.5 Z"/></g>
<g><path style="opacity:1" fill="#6d90ab" d="M 290.5,88.5 C 288.539,95.0869 287.872,102.087 288.5,109.5C 287.18,101.99 287.18,94.3235 288.5,86.5C 289.522,86.8555 290.189,87.5222 290.5,88.5 Z"/></g>
<g><path style="opacity:1" fill="#859eb1" d="M 299.5,101.5 C 300.906,101.973 301.573,102.973 301.5,104.5C 300.094,104.027 299.427,103.027 299.5,101.5 Z"/></g>
<g><path style="opacity:1" fill="#f6f8f9" d="M 290.5,139.5 C 293.835,143.877 297.169,148.211 300.5,152.5C 319.253,180.34 338.253,208.007 357.5,235.5C 357.427,237.027 358.094,238.027 359.5,238.5C 361.4,240.619 363.066,242.953 364.5,245.5C 364.427,247.027 365.094,248.027 366.5,248.5C 367.848,249.527 368.348,250.86 368,252.5C 344.999,284.508 322.499,316.842 300.5,349.5C 298.738,350.262 297.738,351.596 297.5,353.5C 295.206,357.127 292.54,360.461 289.5,363.5C 288.335,356.189 288.169,348.856 289,341.5C 295.51,331.805 302.01,322.138 308.5,312.5C 311.185,309.81 313.518,306.81 315.5,303.5C 317.587,302.415 318.92,300.749 319.5,298.5C 319.733,296.938 320.4,295.605 321.5,294.5C 323.531,293.461 324.864,291.795 325.5,289.5C 333.725,276.595 342.392,263.928 351.5,251.5C 345.47,242.635 339.636,233.635 334,224.5C 325.317,213.789 317.317,202.456 310,190.5C 308.961,189.29 307.794,188.29 306.5,187.5C 300.5,178.5 294.5,169.5 288.5,160.5C 287.872,153.087 288.539,146.087 290.5,139.5 Z"/></g>
<g><path style="opacity:1" fill="#6a8ead" d="M 290.5,139.5 C 288.539,146.087 287.872,153.087 288.5,160.5C 287.508,153.018 287.175,145.352 287.5,137.5C 289.179,137.285 290.179,137.952 290.5,139.5 Z"/></g>
<g><path style="opacity:1" fill="#9eb4c7" d="M 339.5,159.5 C 341.587,160.585 342.92,162.251 343.5,164.5C 341.413,163.415 340.08,161.749 339.5,159.5 Z"/></g>
<g><path style="opacity:1" fill="#0d4980" d="M 305.5,134.5 C 333.55,172.909 360.883,211.909 387.5,251.5C 386.74,253.36 385.74,255.027 384.5,256.5C 382.025,258.77 380.025,261.437 378.5,264.5C 372.07,274.37 365.404,284.036 358.5,293.5C 357.094,293.973 356.427,294.973 356.5,296.5C 354.512,299.128 352.512,301.795 350.5,304.5C 349.11,305.899 348.11,307.566 347.5,309.5C 338.222,322.826 328.889,336.159 319.5,349.5C 317.178,350.802 315.845,352.802 315.5,355.5C 313.5,357.833 311.5,360.167 309.5,362.5C 305.63,359.626 302.63,355.959 300.5,351.5C 300.5,350.833 300.5,350.167 300.5,349.5C 322.499,316.842 344.999,284.508 368,252.5C 368.348,250.86 367.848,249.527 366.5,248.5C 366.573,246.973 365.906,245.973 364.5,245.5C 363.066,242.953 361.4,240.619 359.5,238.5C 359.573,236.973 358.906,235.973 357.5,235.5C 338.253,208.007 319.253,180.34 300.5,152.5C 302.216,148.612 304.549,145.112 307.5,142C 304.18,140.739 303.846,139.072 306.5,137C 305.748,136.329 305.414,135.496 305.5,134.5 Z"/></g>
<g><path style="opacity:1" fill="#fcfcfd" d="M 295.5,196.5 C 307.474,214.149 319.474,231.815 331.5,249.5C 331.5,250.833 331.5,252.167 331.5,253.5C 324.083,263.578 317.083,273.911 310.5,284.5C 308.413,285.585 307.08,287.251 306.5,289.5C 305.11,290.899 304.11,292.566 303.5,294.5C 301.413,295.585 300.08,297.251 299.5,299.5C 296.902,304.344 293.569,308.677 289.5,312.5C 288.167,271.833 288.167,231.167 289.5,190.5C 291.882,192.215 293.882,194.215 295.5,196.5 Z"/></g>
<g><path style="opacity:1" fill="#6e8daa" d="M 382.5,193.5 C 384.262,194.262 385.262,195.596 385.5,197.5C 383.738,196.738 382.738,195.404 382.5,193.5 Z"/></g>
<g><path style="opacity:1" fill="#0d497f" d="M 306.5,187.5 C 307.794,188.29 308.961,189.29 310,190.5C 317.317,202.456 325.317,213.789 334,224.5C 339.636,233.635 345.47,242.635 351.5,251.5C 342.392,263.928 333.725,276.595 325.5,289.5C 323.457,290.579 322.124,292.246 321.5,294.5C 320.4,295.605 319.733,296.938 319.5,298.5C 317.413,299.585 316.08,301.251 315.5,303.5C 313.518,306.81 311.185,309.81 308.5,312.5C 307.986,310.488 307.82,308.488 308,306.5C 311.474,307.928 311.974,307.428 309.5,305C 310.793,304.51 312.127,304.343 313.5,304.5C 313.795,300.149 311.795,298.316 307.5,299C 308.589,301.263 307.922,303.096 305.5,304.5C 304.28,304.113 303.613,303.28 303.5,302C 304.33,300.535 304.496,299.035 304,297.5C 303.184,298.823 302.017,299.489 300.5,299.5C 301.925,298.078 302.925,296.411 303.5,294.5C 304.11,292.566 305.11,290.899 306.5,289.5C 308.587,288.415 309.92,286.749 310.5,284.5C 317.083,273.911 324.083,263.578 331.5,253.5C 334.167,252.167 334.167,250.833 331.5,249.5C 319.474,231.815 307.474,214.149 295.5,196.5C 297.482,196.005 299.482,195.505 301.5,195C 302.902,192.227 304.569,189.727 306.5,187.5 Z"/></g>
<g><path style="opacity:1" fill="#94acc5" d="M 357.5,235.5 C 358.906,235.973 359.573,236.973 359.5,238.5C 358.094,238.027 357.427,237.027 357.5,235.5 Z"/></g>
<g><path style="opacity:1" fill="#adbece" d="M 395.5,239.5 C 397.587,240.585 398.92,242.251 399.5,244.5C 397.413,243.415 396.08,241.749 395.5,239.5 Z"/></g>
<g><path style="opacity:1" fill="#92a9bf" d="M 364.5,245.5 C 365.906,245.973 366.573,246.973 366.5,248.5C 365.094,248.027 364.427,247.027 364.5,245.5 Z"/></g>
<g><path style="opacity:1" fill="#96aec2" d="M 331.5,249.5 C 334.167,250.833 334.167,252.167 331.5,253.5C 331.5,252.167 331.5,250.833 331.5,249.5 Z"/></g>
<g><path style="opacity:1" fill="#6a8aaa" d="M 402.5,254.5 C 402.573,256.027 401.906,257.027 400.5,257.5C 400.427,255.973 401.094,254.973 402.5,254.5 Z"/></g>
<g><path style="opacity:1" fill="#97adc2" d="M 384.5,256.5 C 383.449,259.961 381.449,262.627 378.5,264.5C 380.025,261.437 382.025,258.77 384.5,256.5 Z"/></g>
<g><path style="opacity:1" fill="#89a0b6" d="M 392.5,268.5 C 392.573,270.027 391.906,271.027 390.5,271.5C 390.427,269.973 391.094,268.973 392.5,268.5 Z"/></g>
<g><path style="opacity:1" fill="#365e8b" d="M 432.5,263.5 C 430.954,265.882 430.287,268.549 430.5,271.5C 426.375,271.723 425.709,273.223 428.5,276C 427.747,277.487 426.914,277.654 426,276.5C 424.008,277.665 422.175,278.998 420.5,280.5C 423.765,274.299 427.765,268.632 432.5,263.5 Z"/></g>
<g><path style="opacity:1" fill="#5c81a3" d="M 310.5,284.5 C 309.92,286.749 308.587,288.415 306.5,289.5C 307.08,287.251 308.413,285.585 310.5,284.5 Z"/></g>
<g><path style="opacity:1" fill="#a9bccd" d="M 400.5,284.5 C 399.567,287.37 397.9,289.704 395.5,291.5C 396.433,288.63 398.1,286.296 400.5,284.5 Z"/></g>
<g><path style="opacity:1" fill="#aec0d2" d="M 325.5,289.5 C 324.864,291.795 323.531,293.461 321.5,294.5C 322.124,292.246 323.457,290.579 325.5,289.5 Z"/></g>
<g><path style="opacity:1" fill="#81a1be" d="M 358.5,293.5 C 358.573,295.027 357.906,296.027 356.5,296.5C 356.427,294.973 357.094,293.973 358.5,293.5 Z"/></g>
<g><path style="opacity:1" fill="#6484a4" d="M 303.5,294.5 C 302.925,296.411 301.925,298.078 300.5,299.5C 300.167,299.5 299.833,299.5 299.5,299.5C 300.08,297.251 301.413,295.585 303.5,294.5 Z"/></g>
<g><path style="opacity:1" fill="#98afc2" d="M 319.5,298.5 C 318.92,300.749 317.587,302.415 315.5,303.5C 316.08,301.251 317.413,299.585 319.5,298.5 Z"/></g>
<g><path style="opacity:1" fill="#afc1d2" d="M 350.5,304.5 C 350.759,306.989 349.759,308.656 347.5,309.5C 348.11,307.566 349.11,305.899 350.5,304.5 Z"/></g>
<g><path style="opacity:1" fill="#6587a5" d="M 401.5,307.5 C 401.573,309.027 400.906,310.027 399.5,310.5C 399.427,308.973 400.094,307.973 401.5,307.5 Z"/></g>
<g><path style="opacity:1" fill="#708da8" d="M 364.5,308.5 C 364.573,310.027 363.906,311.027 362.5,311.5C 362.427,309.973 363.094,308.973 364.5,308.5 Z"/></g>
<g><path style="opacity:1" fill="#708caa" d="M 362.5,311.5 C 362.573,313.027 361.906,314.027 360.5,314.5C 360.427,312.973 361.094,311.973 362.5,311.5 Z"/></g>
<g><path style="opacity:1" fill="#0d4980" d="M 306.5,85.5 C 308.55,87.2368 310.383,89.2368 312,91.5C 335.356,125.674 358.856,159.674 382.5,193.5C 382.738,195.404 383.738,196.738 385.5,197.5C 398.331,215.163 410.664,233.163 422.5,251.5C 415.143,262.516 407.81,273.516 400.5,284.5C 398.1,286.296 396.433,288.63 395.5,291.5C 383.353,307.779 371.687,324.446 360.5,341.5C 358.738,342.262 357.738,343.596 357.5,345.5C 356.094,345.973 355.427,346.973 355.5,348.5C 344.776,362.923 334.276,377.59 324,392.5C 322.295,394.577 321.128,396.91 320.5,399.5C 318.086,400.911 316.419,402.911 315.5,405.5C 310.179,412.795 304.845,420.129 299.5,427.5C 299.171,425.009 298.171,422.843 296.5,421C 297.428,420.612 298.095,419.945 298.5,419C 296.541,417.7 295.374,415.867 295,413.5C 293.289,412.419 291.789,412.752 290.5,414.5C 312.815,380.568 336.148,347.234 360.5,314.5C 361.906,314.027 362.573,313.027 362.5,311.5C 363.906,311.027 364.573,310.027 364.5,308.5C 373.174,296.161 381.841,283.828 390.5,271.5C 391.906,271.027 392.573,270.027 392.5,268.5C 394.922,264.656 397.589,260.99 400.5,257.5C 401.906,257.027 402.573,256.027 402.5,254.5C 403.141,253.518 403.807,252.518 404.5,251.5C 403.057,248.923 401.39,246.59 399.5,244.5C 398.92,242.251 397.587,240.585 395.5,239.5C 378.413,214.326 361.08,189.326 343.5,164.5C 342.92,162.251 341.587,160.585 339.5,159.5C 327.077,140.984 314.411,122.651 301.5,104.5C 301.573,102.973 300.906,101.973 299.5,101.5C 298.833,100.5 298.167,99.5 297.5,98.5C 299.288,98.7852 300.955,98.4519 302.5,97.5C 303.648,95.8513 304.981,94.3513 306.5,93C 305.834,90.6706 305.834,88.1706 306.5,85.5 Z"/></g>
<g><path style="opacity:1" fill="#6a89a7" d="M 382.5,334.5 C 382.573,336.027 381.906,337.027 380.5,337.5C 380.427,335.973 381.094,334.973 382.5,334.5 Z"/></g>
<g><path style="opacity:1" fill="#91abc0" d="M 360.5,341.5 C 360.262,343.404 359.262,344.738 357.5,345.5C 357.738,343.596 358.738,342.262 360.5,341.5 Z"/></g>
<g><path style="opacity:1" fill="#8ea7bd" d="M 357.5,345.5 C 357.573,347.027 356.906,348.027 355.5,348.5C 355.427,346.973 356.094,345.973 357.5,345.5 Z"/></g>
<g><path style="opacity:1" fill="#718eab" d="M 300.5,349.5 C 300.5,350.167 300.5,350.833 300.5,351.5C 299.5,352.167 298.5,352.833 297.5,353.5C 297.738,351.596 298.738,350.262 300.5,349.5 Z"/></g>
<g><path style="opacity:1" fill="#9bb4c9" d="M 319.5,349.5 C 318.66,351.853 317.326,353.853 315.5,355.5C 315.845,352.802 317.178,350.802 319.5,349.5 Z"/></g>
<g><path style="opacity:1" fill="#6987a1" d="M 361.5,364.5 C 360.567,367.37 358.9,369.704 356.5,371.5C 357.433,368.63 359.1,366.296 361.5,364.5 Z"/></g>
<g><path style="opacity:1" fill="#849fb6" d="M 302.5,373.5 C 302.573,375.027 301.906,376.027 300.5,376.5C 300.427,374.973 301.094,373.973 302.5,373.5 Z"/></g>
<g><path style="opacity:1" fill="#38638d" d="M 351.5,378.5 C 350.465,383.635 347.798,387.635 343.5,390.5C 345.673,386.148 348.34,382.148 351.5,378.5 Z"/></g>
<g><path style="opacity:1" fill="#a3b9cc" d="M 320.5,399.5 C 319.581,402.089 317.914,404.089 315.5,405.5C 316.419,402.911 318.086,400.911 320.5,399.5 Z"/></g>
<g><path style="opacity:1" fill="#4f779f" d="M 299.5,453.5 C 298.92,455.749 297.587,457.415 295.5,458.5C 296.08,456.251 297.413,454.585 299.5,453.5 Z"/></g>
<g><path style="opacity:1" fill="#6b8bab" d="M 295.5,458.5 C 295.262,460.404 294.262,461.738 292.5,462.5C 292.738,460.596 293.738,459.262 295.5,458.5 Z"/></g>
</svg>
