<svg width="171" height="60" viewBox="0 0 171 60" fill="none" xmlns="http://www.w3.org/2000/svg">
<path d="M73.737 23.5811H75.5574V31.5892C75.5574 32.4413 75.3597 33.1964 74.9643 33.8543C74.5689 34.5083 74.013 35.0235 73.2965 35.4C72.5801 35.7726 71.7404 35.9589 70.7773 35.9589C69.8182 35.9589 68.9804 35.7726 68.264 35.4C67.5476 35.0235 66.9917 34.5083 66.5963 33.8543C66.2009 33.1964 66.0032 32.4413 66.0032 31.5892V23.5811H67.8177V31.4406C67.8177 31.9915 67.9371 32.481 68.1759 32.909C68.4186 33.3371 68.7612 33.674 69.2036 33.9197C69.6459 34.1615 70.1705 34.2824 70.7773 34.2824C71.3881 34.2824 71.9146 34.1615 72.357 33.9197C72.8033 33.674 73.1439 33.3371 73.3788 32.909C73.6176 32.481 73.737 31.9915 73.737 31.4406V23.5811Z" fill="white"/>
<path d="M87.9024 23.5811V35.7567H86.2347L80.1216 26.8272H80.01V35.7567H78.1955V23.5811H79.875L85.9939 32.5226H86.1055V23.5811H87.9024Z" fill="white"/>
<path d="M92.3639 23.5811V35.7567H90.5493V23.5811H92.3639Z" fill="white"/>
<path d="M101.566 26.7796C101.503 26.2168 101.245 25.7808 100.791 25.4717C100.336 25.1586 99.7649 25.002 99.0759 25.002C98.5826 25.002 98.1559 25.0813 97.7957 25.2398C97.4355 25.3944 97.1556 25.6084 96.956 25.8819C96.7602 26.1514 96.6624 26.4586 96.6624 26.8034C96.6624 27.0927 96.7289 27.3424 96.862 27.5525C96.999 27.7625 97.1772 27.9389 97.3964 28.0816C97.6195 28.2203 97.8584 28.3372 98.1128 28.4324C98.3673 28.5235 98.612 28.5988 98.8469 28.6583L100.021 28.9674C100.405 29.0625 100.798 29.1913 101.202 29.3538C101.605 29.5163 101.979 29.7304 102.323 29.9959C102.668 30.2615 102.946 30.5904 103.157 30.9828C103.372 31.3752 103.48 31.8449 103.48 32.3918C103.48 33.0814 103.304 33.6938 102.952 34.2288C102.603 34.7639 102.096 35.186 101.431 35.4952C100.769 35.8043 99.9685 35.9589 99.0289 35.9589C98.1285 35.9589 97.3494 35.8142 96.6917 35.5249C96.034 35.2356 95.5192 34.8253 95.1473 34.2942C94.7754 33.7592 94.5699 33.125 94.5307 32.3918H96.3511C96.3864 32.8317 96.5273 33.1984 96.7739 33.4917C97.0245 33.781 97.3435 33.997 97.7311 34.1397C98.1226 34.2784 98.5513 34.3478 99.0171 34.3478C99.53 34.3478 99.9861 34.2665 100.385 34.104C100.789 33.9375 101.106 33.7077 101.337 33.4144C101.568 33.1171 101.683 32.7703 101.683 32.374C101.683 32.0133 101.581 31.718 101.378 31.4881C101.178 31.2583 100.906 31.068 100.562 30.9174C100.221 30.7668 99.8354 30.634 99.4047 30.5191L97.9836 30.1267C97.0206 29.8612 96.2572 29.4708 95.6934 28.9555C95.1336 28.4403 94.8537 27.7586 94.8537 26.9104C94.8537 26.2089 95.0416 25.5965 95.4174 25.0734C95.7933 24.5502 96.3022 24.1439 96.9442 23.8546C97.5863 23.5613 98.3105 23.4147 99.117 23.4147C99.9313 23.4147 100.65 23.5593 101.272 23.8487C101.898 24.138 102.392 24.5363 102.752 25.0436C103.112 25.547 103.3 26.1256 103.316 26.7796H101.566Z" fill="white"/>
<path d="M105.055 25.1625V23.5811H114.363V25.1625H110.61V35.7567H108.802V25.1625H105.055Z" fill="white"/>
<path d="M126.35 29.6689C126.35 30.9689 126.115 32.0866 125.645 33.022C125.175 33.9534 124.531 34.6708 123.713 35.1741C122.899 35.6735 121.973 35.9232 120.935 35.9232C119.894 35.9232 118.964 35.6735 118.146 35.1741C117.332 34.6708 116.69 33.9514 116.22 33.016C115.75 32.0807 115.515 30.965 115.515 29.6689C115.515 28.3689 115.75 27.2532 116.22 26.3218C116.69 25.3865 117.332 24.6691 118.146 24.1697C118.964 23.6663 119.894 23.4147 120.935 23.4147C121.973 23.4147 122.899 23.6663 123.713 24.1697C124.531 24.6691 125.175 25.3865 125.645 26.3218C126.115 27.2532 126.35 28.3689 126.35 29.6689ZM124.553 29.6689C124.553 28.6781 124.394 27.8438 124.077 27.166C123.764 26.4843 123.333 25.9691 122.785 25.6203C122.241 25.2676 121.624 25.0912 120.935 25.0912C120.243 25.0912 119.624 25.2676 119.08 25.6203C118.536 25.9691 118.105 26.4843 117.788 27.166C117.475 27.8438 117.318 28.6781 117.318 29.6689C117.318 30.6598 117.475 31.4961 117.788 32.1778C118.105 32.8555 118.536 33.3708 119.08 33.7235C119.624 34.0723 120.243 34.2467 120.935 34.2467C121.624 34.2467 122.241 34.0723 122.785 33.7235C123.333 33.3708 123.764 32.8555 124.077 32.1778C124.394 31.4961 124.553 30.6598 124.553 29.6689Z" fill="white"/>
<path d="M128.612 35.7567V23.5811H132.899C133.83 23.5811 134.604 23.7436 135.218 24.0686C135.837 24.3936 136.299 24.8435 136.604 25.4182C136.91 25.9889 137.062 26.6488 137.062 27.3979C137.062 28.143 136.908 28.799 136.598 29.3657C136.293 29.9285 135.831 30.3665 135.212 30.6796C134.598 30.9927 133.825 31.1493 132.893 31.1493H129.646V29.5679H132.728C133.316 29.5679 133.793 29.4827 134.161 29.3122C134.533 29.1418 134.805 28.8941 134.978 28.5691C135.15 28.2441 135.236 27.8537 135.236 27.3979C135.236 26.9381 135.148 26.5398 134.972 26.2029C134.799 25.866 134.527 25.6084 134.155 25.4301C133.787 25.2478 133.304 25.1566 132.705 25.1566H130.427V35.7567H128.612ZM134.549 30.2635L137.52 35.7567H135.453L132.541 30.2635H134.549Z" fill="white"/>
<path d="M140.286 35.7567H138.36L142.688 23.5811H144.784L149.112 35.7567H147.186L143.786 25.7927H143.692L140.286 35.7567Z" fill="white"/>
<path d="M158.423 27.4276C158.309 27.067 158.156 26.7439 157.965 26.4586C157.777 26.1692 157.552 25.9235 157.289 25.7214C157.027 25.5153 156.727 25.3587 156.391 25.2517C156.058 25.1447 155.692 25.0912 155.293 25.0912C154.615 25.0912 154.005 25.2676 153.461 25.6203C152.916 25.9731 152.486 26.4903 152.169 27.172C151.855 27.8497 151.699 28.6801 151.699 29.663C151.699 30.6499 151.857 31.4842 152.175 32.1659C152.492 32.8476 152.926 33.3648 153.478 33.7176C154.03 34.0703 154.658 34.2467 155.363 34.2467C156.017 34.2467 156.587 34.1119 157.072 33.8424C157.561 33.5729 157.939 33.1924 158.205 32.701C158.475 32.2055 158.611 31.6229 158.611 30.9531L159.08 31.0423H155.639V29.5263H160.366V30.9115C160.366 31.934 160.151 32.8218 159.72 33.5749C159.294 34.324 158.703 34.9026 157.947 35.3109C157.195 35.7191 156.334 35.9232 155.363 35.9232C154.275 35.9232 153.32 35.6696 152.497 35.1622C151.679 34.6549 151.041 33.9356 150.583 33.0042C150.125 32.0688 149.896 30.959 149.896 29.6749C149.896 28.7039 150.029 27.8319 150.295 27.059C150.562 26.2862 150.935 25.6302 151.417 25.0912C151.902 24.5482 152.472 24.134 153.126 23.8487C153.784 23.5593 154.502 23.4147 155.281 23.4147C155.931 23.4147 156.536 23.5118 157.095 23.706C157.659 23.9002 158.16 24.1756 158.599 24.5324C159.041 24.8891 159.407 25.3131 159.697 25.8046C159.987 26.2921 160.182 26.8331 160.284 27.4276H158.423Z" fill="white"/>
<path d="M162.67 35.7567V23.5811H170.21V25.1625H164.484V28.8723H169.816V30.4478H164.484V34.1753H170.28V35.7567H162.67Z" fill="white"/>
<ellipse cx="30" cy="30" rx="30" ry="30" fill="#01467E"/>
<path d="M26.7996 59.7835C25.1888 59.6002 23.3161 59.2466 22.5565 58.9978C22.2684 58.9061 21.4957 58.6573 20.8409 58.4608C18.3658 57.7013 15.4323 56.2738 13.2452 54.7678C10.1807 52.6462 7.26032 49.7389 5.37448 46.9494C3.21363 43.7409 2.16594 41.4229 0.869434 36.9964C0.162246 34.5605 -0.152059 30.9329 0.0705738 28.0256C0.306303 24.9742 0.502744 24.0706 1.66829 20.4299C2.62431 17.4309 4.40537 14.1568 6.61861 11.3281C7.53533 10.1625 9.93191 7.75287 11.2153 6.73138C14.1619 4.34789 17.5407 2.52754 20.8409 1.51914C21.4957 1.3227 22.2553 1.07388 22.5565 0.982205C24.115 0.471458 27.7819 0 30.2439 0C32.5881 0 36.9884 0.576227 38.0754 1.03459C38.2456 1.11317 38.9266 1.3227 39.5683 1.51914C42.7768 2.48825 46.0378 4.23003 49.1284 6.6528C50.2809 7.56953 52.8477 10.1233 53.7906 11.3281C56.2527 14.445 58.204 18.2428 59.2124 21.8704C59.3958 22.5514 59.6315 23.4027 59.7363 23.7563C60.5613 26.4802 60.5613 33.4997 59.7363 36.2237C59.6315 36.5773 59.3958 37.4286 59.2124 38.1096C58.204 41.7372 56.2527 45.535 53.7906 48.6519C52.8477 49.8567 50.2809 52.4105 49.1284 53.3272C46.0378 55.75 42.7768 57.4917 39.5683 58.4608C38.9266 58.6573 38.2456 58.8668 38.0754 58.9454C37.5646 59.1549 35.2466 59.5871 33.4786 59.7835C31.5535 60.0193 28.7248 60.0193 26.7996 59.7835ZM31.8678 56.0905C32.6798 54.8856 35.705 50.577 36.7527 49.1103C37.0932 48.6388 38.298 46.9101 39.4504 45.26C40.5898 43.623 41.7161 42.0253 41.9256 41.7241C42.1482 41.4098 43.3007 39.7597 44.5186 38.031C45.7235 36.3154 47.4652 33.814 48.4082 32.4782C49.338 31.1424 50.1106 30.0293 50.1106 29.99C50.1106 29.9507 49.338 28.8375 48.4082 27.5017C47.4652 26.1659 45.7235 23.6646 44.5186 21.949C43.3007 20.2203 42.1482 18.5702 41.9256 18.2559C41.7161 17.9547 40.5898 16.357 39.4504 14.72C38.298 13.0699 37.0932 11.3412 36.7527 10.8697C35.7835 9.50774 32.7845 5.23843 31.9595 4.03359C31.5535 3.44427 31.0035 2.68469 30.7547 2.37039C30.3487 1.85964 30.2701 1.82035 30.1915 2.04299C30.1391 2.17395 30.0868 2.80256 30.0868 3.43117L30.0737 4.55743L31.0035 5.91942C31.5142 6.6659 32.1297 7.56953 32.3786 7.92312C32.6143 8.28981 33.3739 9.37678 34.068 10.3459C34.7621 11.315 36.4253 13.6854 37.7742 15.6105C39.123 17.5356 40.485 19.5 40.8124 19.9584C41.1398 20.4168 41.8077 21.3728 42.2923 22.0931C42.7899 22.8003 43.5495 23.8741 43.9817 24.4896C44.4139 25.1052 44.9639 25.904 45.1996 26.2576C45.4484 26.6243 45.9854 27.3839 46.4045 27.9601C46.8235 28.5363 47.3081 29.2304 47.4783 29.5054L47.7795 29.99L47.4783 30.4876C47.3081 30.7496 46.8235 31.4437 46.4045 32.0199C45.9854 32.5961 45.4484 33.3688 45.1996 33.7224C44.9639 34.0891 44.4139 34.8748 43.9817 35.4903C43.5495 36.1059 42.7899 37.1797 42.2923 37.8869C41.8077 38.6072 41.1398 39.5632 40.8124 40.0216C40.485 40.4799 39.123 42.4444 37.7742 44.3695C36.4253 46.2946 34.7621 48.665 34.068 49.6341C33.3739 50.6032 32.6143 51.7033 32.3786 52.0569C32.1297 52.4236 31.5142 53.3141 31.0035 54.0606L30.0737 55.4226V56.4833C30.0737 57.0727 30.113 57.7013 30.1653 57.8715L30.2439 58.1989L30.663 57.7144C30.8987 57.4524 31.4357 56.7191 31.8678 56.0905ZM31.4749 49.9091C34.3299 45.7838 35.9014 43.5313 35.9669 43.4789C36.0062 43.4397 36.7788 42.3527 37.6825 41.0693C39.3064 38.7251 40.1314 37.5464 42.5804 34.0367C43.3007 33.0021 43.9817 32.0199 44.0865 31.8758C44.1912 31.7187 44.5317 31.2341 44.846 30.7889L45.4092 29.99L44.846 29.1911C44.5317 28.7459 44.1912 28.2613 44.0865 28.1042C43.9817 27.9601 43.3007 26.9779 42.5804 25.9433C40.1314 22.4336 39.3064 21.2549 37.6825 18.9107C36.7788 17.6273 36.0062 16.5403 35.9669 16.501C35.9014 16.4356 33.3739 12.821 31.5404 10.1495C31.1344 9.57322 30.6892 8.97081 30.5451 8.80056C30.2963 8.52554 30.2701 8.51244 30.1915 8.73508C30.1391 8.86604 30.0868 9.48155 30.0868 10.0971C30.0737 11.3805 29.9427 11.1186 32.1559 14.2092C32.6667 14.9295 33.5441 16.1867 34.1073 16.9856C34.6573 17.7976 35.3383 18.7798 35.6133 19.1465C36.0979 19.8274 36.8443 20.8882 37.7349 22.1978C37.9706 22.5645 38.5206 23.3372 38.9397 23.9265C39.3588 24.5158 40.485 26.1267 41.4411 27.5017L43.1697 29.99L41.4411 32.4782C40.485 33.8533 39.3588 35.4642 38.9397 36.0535C38.5206 36.6428 37.9706 37.4286 37.7349 37.7822C36.8443 39.0918 36.0979 40.1525 35.6133 40.8335C35.3383 41.2002 34.6573 42.1824 34.1073 42.9944C33.5441 43.7932 32.6667 45.0505 32.1559 45.7708C29.9558 48.8352 30.0737 48.6126 30.0737 49.8174C30.0737 51.1532 30.1653 51.533 30.4142 51.3235C30.5189 51.2318 30.9904 50.6032 31.4749 49.9091ZM30.6237 44.4481C30.7678 44.2647 31.1475 43.754 31.4488 43.3087C31.75 42.8634 32.1821 42.2348 32.4179 41.9074C32.6536 41.58 33.0334 41.03 33.2822 40.6633C33.531 40.3097 34.2251 39.3144 34.8144 38.4631C36.7265 35.7523 39.3981 31.9151 40.0791 30.946L40.7208 29.99L40.0791 29.0471C39.3981 28.0649 36.7265 24.2277 34.8144 21.5168C34.2251 20.6656 33.531 19.6834 33.2822 19.3167C33.0334 18.9631 32.6536 18.4 32.4179 18.0726C32.1821 17.7452 31.75 17.1166 31.4488 16.6713C30.6237 15.4796 30.3487 15.1391 30.2308 15.2438C30.0606 15.4272 30.0344 17.7583 30.2177 18.0857C30.3094 18.2559 31.0952 19.4346 31.9726 20.6918C32.8631 21.949 33.8584 23.4027 34.212 23.9134C34.5656 24.4242 35.3907 25.5897 36.0324 26.5064C36.6872 27.4363 37.486 28.5887 37.8265 29.0864L38.4551 29.99L37.8265 30.8936C37.486 31.3913 36.6872 32.5437 36.0324 33.4735C35.3907 34.3903 34.5656 35.5558 34.212 36.0666C33.8584 36.5773 32.8631 38.031 31.9726 39.2882C31.0952 40.5454 30.3094 41.711 30.2308 41.8681C29.982 42.3134 30.0475 44.7886 30.2963 44.7886C30.3356 44.7886 30.4796 44.6314 30.6237 44.4481ZM31.2654 36.8654C31.619 36.3678 32.0643 35.713 32.2738 35.4249C32.4702 35.1367 32.9286 34.495 33.2822 33.9843C33.6358 33.4866 34.0287 32.9235 34.1596 32.7402C34.3037 32.5568 34.7882 31.8627 35.2466 31.2079L36.0979 29.99L35.2466 28.7852C34.7882 28.1173 34.3037 27.4232 34.1596 27.2398C34.0287 27.0565 33.6358 26.5064 33.2822 25.9957C32.9286 25.498 32.4702 24.8432 32.2738 24.5551C32.0643 24.267 31.6583 23.6777 31.3571 23.2455C30.5844 22.1193 30.3094 21.8311 30.1784 22.0276C30.0606 22.224 30.0344 37.5857 30.1522 37.9C30.2701 38.2012 30.4796 37.9917 31.2654 36.8654Z" fill="white"/>
</svg>
