<svg width="20" height="20" viewBox="0 0 20 20" fill="none" xmlns="http://www.w3.org/2000/svg">
<path d="M13.125 10.75H4.74948C4.53713 10.75 4.35913 10.6786 4.21548 10.5357C4.07183 10.3927 4 10.2157 4 10.0044C4 9.79315 4.07183 9.6146 4.21548 9.46877C4.35913 9.32294 4.53713 9.25002 4.74948 9.25002H13.125L9.45392 5.57894C9.30408 5.4291 9.22917 5.25349 9.22917 5.0521C9.22917 4.85071 9.30556 4.67031 9.45833 4.51089C9.61111 4.36476 9.78819 4.29169 9.98958 4.29169C10.191 4.29169 10.3667 4.36684 10.5169 4.51715L15.4708 9.47727C15.5458 9.55242 15.6007 9.63384 15.6354 9.72152C15.6701 9.8092 15.6875 9.90315 15.6875 10.0034C15.6875 10.1035 15.6701 10.1975 15.6354 10.2852C15.6007 10.3728 15.5486 10.4514 15.4792 10.5209L10.5208 15.4792C10.3681 15.632 10.1944 15.7049 10 15.6979C9.80556 15.691 9.63194 15.6145 9.47917 15.4683C9.32639 15.3089 9.25 15.1273 9.25 14.9236C9.25 14.7199 9.32639 14.544 9.47917 14.3959L13.125 10.75Z" fill="white"/>
</svg>
